<svg xmlns="http://www.w3.org/2000/svg" width="700" height="220" viewBox="0 0 700 220"><rect x=".5" y=".5" width="699" height="219" rx="6" fill="#0d1117" stroke="#30363d"/><text x="24" y="36" fill="#f0f6fc" style="font-family:'Segoe UI',Ubuntu,'Noto Sans',Helvetica,Arial,sans-serif;font-size:16px;font-weight:600">Activity, last 30 days</text><defs><linearGradient id="g" x1="0" y1="0" x2="0" y2="1"><stop offset="0" stop-color="#f0f6fc" stop-opacity=".22"/><stop offset="1" stop-color="#f0f6fc" stop-opacity="0"/></linearGradient></defs><line x1="44" y1="56.0" x2="680" y2="56.0" stroke="#21262d"/><text x="36" y="60.0" text-anchor="end" fill="#9198a1" style="font-family:'Segoe UI',Ubuntu,'Noto Sans',Helvetica,Arial,sans-serif;font-size:11px">61</text><line x1="44" y1="88.0" x2="680" y2="88.0" stroke="#21262d"/><text x="36" y="92.0" text-anchor="end" fill="#9198a1" style="font-family:'Segoe UI',Ubuntu,'Noto Sans',Helvetica,Arial,sans-serif;font-size:11px">46</text><line x1="44" y1="120.0" x2="680" y2="120.0" stroke="#21262d"/><text x="36" y="124.0" text-anchor="end" fill="#9198a1" style="font-family:'Segoe UI',Ubuntu,'Noto Sans',Helvetica,Arial,sans-serif;font-size:11px">30</text><line x1="44" y1="152.0" x2="680" y2="152.0" stroke="#21262d"/><text x="36" y="156.0" text-anchor="end" fill="#9198a1" style="font-family:'Segoe UI',Ubuntu,'Noto Sans',Helvetica,Arial,sans-serif;font-size:11px">15</text><line x1="44" y1="184.0" x2="680" y2="184.0" stroke="#21262d"/><text x="36" y="188.0" text-anchor="end" fill="#9198a1" style="font-family:'Segoe UI',Ubuntu,'Noto Sans',Helvetica,Arial,sans-serif;font-size:11px">0</text><polygon points="44,184 44.0,181.9 65.9,184.0 87.9,184.0 109.8,173.5 131.7,154.6 153.7,181.9 175.6,184.0 197.5,184.0 219.4,184.0 241.4,184.0 263.3,184.0 285.2,184.0 307.2,184.0 329.1,148.3 351.0,179.8 373.0,175.6 394.9,121.0 416.8,56.0 438.8,93.8 460.7,142.0 482.6,171.4 504.6,142.0 526.5,102.2 548.4,98.0 570.3,148.3 592.3,177.7 614.2,179.8 636.1,184.0 658.1,177.7 680.0,184.0 680,184" fill="url(#g)"/><polyline points="44.0,181.9 65.9,184.0 87.9,184.0 109.8,173.5 131.7,154.6 153.7,181.9 175.6,184.0 197.5,184.0 219.4,184.0 241.4,184.0 263.3,184.0 285.2,184.0 307.2,184.0 329.1,148.3 351.0,179.8 373.0,175.6 394.9,121.0 416.8,56.0 438.8,93.8 460.7,142.0 482.6,171.4 504.6,142.0 526.5,102.2 548.4,98.0 570.3,148.3 592.3,177.7 614.2,179.8 636.1,184.0 658.1,177.7 680.0,184.0" fill="none" stroke="#f0f6fc" stroke-width="2" stroke-linejoin="round"/><circle cx="44.0" cy="181.9" r="2.5" fill="#f0f6fc"/><circle cx="109.8" cy="173.5" r="2.5" fill="#f0f6fc"/><circle cx="131.7" cy="154.6" r="2.5" fill="#f0f6fc"/><circle cx="153.7" cy="181.9" r="2.5" fill="#f0f6fc"/><circle cx="329.1" cy="148.3" r="2.5" fill="#f0f6fc"/><circle cx="351.0" cy="179.8" r="2.5" fill="#f0f6fc"/><circle cx="373.0" cy="175.6" r="2.5" fill="#f0f6fc"/><circle cx="394.9" cy="121.0" r="2.5" fill="#f0f6fc"/><circle cx="416.8" cy="56.0" r="2.5" fill="#f0f6fc"/><circle cx="438.8" cy="93.8" r="2.5" fill="#f0f6fc"/><circle cx="460.7" cy="142.0" r="2.5" fill="#f0f6fc"/><circle cx="482.6" cy="171.4" r="2.5" fill="#f0f6fc"/><circle cx="504.6" cy="142.0" r="2.5" fill="#f0f6fc"/><circle cx="526.5" cy="102.2" r="2.5" fill="#f0f6fc"/><circle cx="548.4" cy="98.0" r="2.5" fill="#f0f6fc"/><circle cx="570.3" cy="148.3" r="2.5" fill="#f0f6fc"/><circle cx="592.3" cy="177.7" r="2.5" fill="#f0f6fc"/><circle cx="614.2" cy="179.8" r="2.5" fill="#f0f6fc"/><circle cx="658.1" cy="177.7" r="2.5" fill="#f0f6fc"/><text x="44.0" y="208" text-anchor="middle" fill="#9198a1" style="font-family:'Segoe UI',Ubuntu,'Noto Sans',Helvetica,Arial,sans-serif;font-size:11px">Sep 10</text><text x="153.7" y="208" text-anchor="middle" fill="#9198a1" style="font-family:'Segoe UI',Ubuntu,'Noto Sans',Helvetica,Arial,sans-serif;font-size:11px">Sep 15</text><text x="263.3" y="208" text-anchor="middle" fill="#9198a1" style="font-family:'Segoe UI',Ubuntu,'Noto Sans',Helvetica,Arial,sans-serif;font-size:11px">Sep 20</text><text x="373.0" y="208" text-anchor="middle" fill="#9198a1" style="font-family:'Segoe UI',Ubuntu,'Noto Sans',Helvetica,Arial,sans-serif;font-size:11px">Sep 25</text><text x="482.6" y="208" text-anchor="middle" fill="#9198a1" style="font-family:'Segoe UI',Ubuntu,'Noto Sans',Helvetica,Arial,sans-serif;font-size:11px">Sep 30</text><text x="592.3" y="208" text-anchor="middle" fill="#9198a1" style="font-family:'Segoe UI',Ubuntu,'Noto Sans',Helvetica,Arial,sans-serif;font-size:11px">Oct 5</text></svg>