<svg xmlns="http://www.w3.org/2000/svg" width="340" height="210" viewBox="0 0 340 210"><rect x=".5" y=".5" width="339" height="209" rx="6" fill="#0d1117" stroke="#30363d"/><text x="24" y="36" fill="#f0f6fc" style="font-family:'Segoe UI',Ubuntu,'Noto Sans',Helvetica,Arial,sans-serif;font-size:16px;font-weight:600">Языки</text><text x="24" y="70" fill="#9198a1" style="font-family:'Segoe UI',Ubuntu,'Noto Sans',Helvetica,Arial,sans-serif;font-size:14px">Shell</text><rect x="124" y="61" width="140" height="8" rx="4" fill="#21262d"/><rect x="124" y="61" width="48.9" height="8" rx="4" fill="#f0f6fc"/><text x="316" y="70" text-anchor="end" fill="#f0f6fc" style="font-family:'Segoe UI',Ubuntu,'Noto Sans',Helvetica,Arial,sans-serif;font-size:14px;font-weight:600">35%</text><text x="24" y="94" fill="#9198a1" style="font-family:'Segoe UI',Ubuntu,'Noto Sans',Helvetica,Arial,sans-serif;font-size:14px">Kotlin</text><rect x="124" y="85" width="140" height="8" rx="4" fill="#21262d"/><rect x="124" y="85" width="44.5" height="8" rx="4" fill="#f0f6fc"/><text x="316" y="94" text-anchor="end" fill="#f0f6fc" style="font-family:'Segoe UI',Ubuntu,'Noto Sans',Helvetica,Arial,sans-serif;font-size:14px;font-weight:600">32%</text><text x="24" y="118" fill="#9198a1" style="font-family:'Segoe UI',Ubuntu,'Noto Sans',Helvetica,Arial,sans-serif;font-size:14px">Python</text><rect x="124" y="109" width="140" height="8" rx="4" fill="#21262d"/><rect x="124" y="109" width="39.2" height="8" rx="4" fill="#f0f6fc"/><text x="316" y="118" text-anchor="end" fill="#f0f6fc" style="font-family:'Segoe UI',Ubuntu,'Noto Sans',Helvetica,Arial,sans-serif;font-size:14px;font-weight:600">28%</text><text x="24" y="142" fill="#9198a1" style="font-family:'Segoe UI',Ubuntu,'Noto Sans',Helvetica,Arial,sans-serif;font-size:14px">JavaScript</text><rect x="124" y="133" width="140" height="8" rx="4" fill="#21262d"/><rect x="124" y="133" width="8.0" height="8" rx="4" fill="#f0f6fc"/><text x="316" y="142" text-anchor="end" fill="#f0f6fc" style="font-family:'Segoe UI',Ubuntu,'Noto Sans',Helvetica,Arial,sans-serif;font-size:14px;font-weight:600">5%</text></svg>